<svg xmlns="http://www.w3.org/2000/svg" viewBox="0 0 420 320" role="img" aria-label="Casa de fazenda">
  <defs>
    <linearGradient id="roofMain" x1="0" y1="0" x2="0" y2="1">
      <stop offset="0%" stop-color="#9b2c2c" />
      <stop offset="100%" stop-color="#6f1d1d" />
    </linearGradient>
    <linearGradient id="wallMain" x1="0" y1="0" x2="0" y2="1">
      <stop offset="0%" stop-color="#f8efd8" />
      <stop offset="100%" stop-color="#e8dcc1" />
    </linearGradient>
    <linearGradient id="doorMain" x1="0" y1="0" x2="0" y2="1">
      <stop offset="0%" stop-color="#7a4f2a" />
      <stop offset="100%" stop-color="#5f3a1d" />
    </linearGradient>
    <linearGradient id="windowGlass" x1="0" y1="0" x2="0" y2="1">
      <stop offset="0%" stop-color="#d7f0ff" />
      <stop offset="100%" stop-color="#9fd4ef" />
    </linearGradient>
    <linearGradient id="groundPad" x1="0" y1="0" x2="1" y2="1">
      <stop offset="0%" stop-color="#8aba66" />
      <stop offset="100%" stop-color="#5f8f43" />
    </linearGradient>
    <filter id="shadowSoft" x="-20%" y="-20%" width="140%" height="160%">
      <feDropShadow dx="0" dy="8" stdDeviation="8" flood-color="#1f2937" flood-opacity="0.35" />
    </filter>
  </defs>

  <ellipse cx="210" cy="278" rx="176" ry="28" fill="url(#groundPad)" opacity="0.9" />

  <g filter="url(#shadowSoft)">
    <rect x="84" y="112" width="252" height="142" rx="10" fill="url(#wallMain)" stroke="#9d8f77" stroke-width="3" />
    <polygon points="64,132 210,44 356,132" fill="url(#roofMain)" stroke="#5f1b1b" stroke-width="3" />
    <rect x="146" y="188" width="64" height="66" rx="5" fill="url(#doorMain)" stroke="#4a2f16" stroke-width="3" />
    <circle cx="198" cy="222" r="4" fill="#e8d39a" />

    <rect x="104" y="142" width="58" height="50" rx="6" fill="url(#windowGlass)" stroke="#4b6d84" stroke-width="3" />
    <path d="M133 142V192M104 167H162" stroke="#4b6d84" stroke-width="3" />

    <rect x="258" y="142" width="58" height="50" rx="6" fill="url(#windowGlass)" stroke="#4b6d84" stroke-width="3" />
    <path d="M287 142V192M258 167H316" stroke="#4b6d84" stroke-width="3" />

    <rect x="232" y="196" width="92" height="58" rx="6" fill="#f2e6ce" stroke="#9d8f77" stroke-width="3" />
    <polygon points="222,204 278,160 334,204" fill="#7e2929" stroke="#5f1b1b" stroke-width="3" />
    <rect x="268" y="216" width="20" height="38" rx="4" fill="#6f4725" />
  </g>
</svg>
