<svg xmlns="http://www.w3.org/2000/svg" width="720" height="940" viewBox="0 0 720 940">
  <defs>
    <linearGradient id="yellowFill" x1="0" y1="0" x2="0" y2="1">
      <stop offset="0%" stop-color="#fff38b"/>
      <stop offset="48%" stop-color="#ffe430"/>
      <stop offset="100%" stop-color="#ffd400"/>
    </linearGradient>
    <linearGradient id="redFill" x1="0" y1="0" x2="0" y2="1">
      <stop offset="0%" stop-color="#ff3f4f"/>
      <stop offset="100%" stop-color="#c5182e"/>
    </linearGradient>
    <linearGradient id="blueBand" x1="0" y1="0" x2="0" y2="1">
      <stop offset="0%" stop-color="#d8f4ff"/>
      <stop offset="100%" stop-color="#9ad2ed"/>
    </linearGradient>
    <linearGradient id="collarBlue" x1="0" y1="0" x2="1" y2="1">
      <stop offset="0%" stop-color="#3849c9"/>
      <stop offset="100%" stop-color="#1e2a7a"/>
    </linearGradient>
    <linearGradient id="basketOrange" x1="0" y1="0" x2="0" y2="1">
      <stop offset="0%" stop-color="#ff9f45"/>
      <stop offset="100%" stop-color="#d36c1a"/>
    </linearGradient>
    <radialGradient id="gloss" cx="66%" cy="34%" r="42%">
      <stop offset="0%" stop-color="#ffffff" stop-opacity="0.6"/>
      <stop offset="100%" stop-color="#ffffff" stop-opacity="0"/>
    </radialGradient>
    <filter id="dropShadow" x="-25%" y="-25%" width="150%" height="170%">
      <feDropShadow dx="0" dy="14" stdDeviation="10" flood-color="#0f172a" flood-opacity="0.34"/>
    </filter>

    <path id="balloonShape" d="M360 28 C547 28 668 170 668 348 C668 515 573 628 468 697 C421 727 392 773 388 818 L332 818 C328 773 299 727 252 697 C147 628 52 515 52 348 C52 170 173 28 360 28 Z"/>
    <clipPath id="balloonClip">
      <use href="#balloonShape"/>
    </clipPath>
  </defs>

  <g filter="url(#dropShadow)">
    <use href="#balloonShape" fill="url(#yellowFill)"/>

    <g clip-path="url(#balloonClip)">
      <rect x="0" y="0" width="720" height="860" fill="url(#yellowFill)"/>

      <path d="M78 20 C132 248 132 538 78 812 L160 812 C208 546 208 246 160 20 Z" fill="url(#redFill)"/>
      <path d="M190 18 C220 246 220 542 190 814 L270 814 C290 544 290 244 270 18 Z" fill="url(#redFill)"/>
      <path d="M322 14 C332 244 332 546 322 818 L398 818 C388 546 388 244 398 14 Z" fill="url(#redFill)"/>
      <path d="M450 18 C430 244 430 544 450 814 L530 814 C500 542 500 246 530 18 Z" fill="url(#redFill)"/>
      <path d="M560 20 C512 248 512 538 560 812 L642 812 C588 538 588 248 642 20 Z" fill="url(#redFill)"/>

      <path d="M28 238 C198 206 522 206 692 238 L676 270 C512 244 208 244 44 270 Z" fill="url(#blueBand)" stroke="#0f172a" stroke-width="4"/>
      <path d="M28 504 C198 536 522 536 692 504 L676 536 C512 562 208 562 44 536 Z" fill="url(#blueBand)" stroke="#0f172a" stroke-width="4"/>

      <ellipse cx="522" cy="292" rx="58" ry="126" fill="url(#gloss)" opacity="0.55"/>
      <ellipse cx="430" cy="602" rx="220" ry="52" fill="#ffffff" opacity="0.2"/>
    </g>

    <use href="#balloonShape" fill="none" stroke="#000000" stroke-width="8"/>
  </g>

  <g transform="translate(0, 8)" filter="url(#dropShadow)">
    <rect x="286" y="712" width="148" height="62" rx="22" fill="url(#collarBlue)" stroke="#000000" stroke-width="7"/>

    <line x1="312" y1="770" x2="306" y2="828" stroke="#000000" stroke-width="6" stroke-linecap="round"/>
    <line x1="408" y1="770" x2="414" y2="828" stroke="#000000" stroke-width="6" stroke-linecap="round"/>
    <line x1="312" y1="770" x2="306" y2="828" stroke="#f8fafc" stroke-width="3.5" stroke-linecap="round"/>
    <line x1="408" y1="770" x2="414" y2="828" stroke="#f8fafc" stroke-width="3.5" stroke-linecap="round"/>

    <rect x="326" y="790" width="68" height="26" rx="10" fill="#d1d5db" stroke="#000000" stroke-width="5"/>

    <rect x="282" y="824" width="156" height="88" rx="14" fill="url(#basketOrange)" stroke="#000000" stroke-width="7"/>
    <ellipse cx="322" cy="862" rx="18" ry="24" fill="#cfd8dc" stroke="#111827" stroke-width="4"/>
    <ellipse cx="360" cy="862" rx="18" ry="24" fill="#cfd8dc" stroke="#111827" stroke-width="4"/>
    <ellipse cx="398" cy="862" rx="18" ry="24" fill="#cfd8dc" stroke="#111827" stroke-width="4"/>
  </g>

  <g aria-label="Loja">
    <ellipse cx="360" cy="362" rx="148" ry="56" fill="#fff4d6" opacity="0.86"/>
    <text
      x="360"
      y="380"
      text-anchor="middle"
      font-family="Arial, Helvetica, sans-serif"
      font-size="74"
      font-weight="900"
      fill="#1f2937"
      stroke="#fef3c7"
      stroke-width="8"
      paint-order="stroke fill"
    >
      Loja
    </text>
  </g>
</svg>
