<svg xmlns="http://www.w3.org/2000/svg" viewBox="0 0 1920 1080" role="img" aria-label="Campo agricola">
  <defs>
    <linearGradient id="sky" x1="0" y1="0" x2="0" y2="1">
      <stop offset="0%" stop-color="#8ec5ff" />
      <stop offset="58%" stop-color="#c9e6ff" />
      <stop offset="100%" stop-color="#eaf5ff" />
    </linearGradient>
    <linearGradient id="groundBack" x1="0" y1="0" x2="0" y2="1">
      <stop offset="0%" stop-color="#8ec27f" />
      <stop offset="100%" stop-color="#5f8f53" />
    </linearGradient>
    <linearGradient id="groundFront" x1="0" y1="0" x2="0" y2="1">
      <stop offset="0%" stop-color="#78b164" />
      <stop offset="100%" stop-color="#3f6f35" />
    </linearGradient>
    <linearGradient id="fieldStripeA" x1="0" y1="0" x2="1" y2="1">
      <stop offset="0%" stop-color="#5f9a4d" />
      <stop offset="100%" stop-color="#3f7d35" />
    </linearGradient>
    <linearGradient id="fieldStripeB" x1="0" y1="0" x2="1" y2="1">
      <stop offset="0%" stop-color="#7eb767" />
      <stop offset="100%" stop-color="#4d8e3f" />
    </linearGradient>
    <radialGradient id="sunGlow" cx="0.84" cy="0.16" r="0.32">
      <stop offset="0%" stop-color="#fff8cf" stop-opacity="0.95" />
      <stop offset="100%" stop-color="#fff8cf" stop-opacity="0" />
    </radialGradient>
    <linearGradient id="cloudSoft" x1="0" y1="0" x2="0" y2="1">
      <stop offset="0%" stop-color="#ffffff" stop-opacity="0.95" />
      <stop offset="100%" stop-color="#e8f3ff" stop-opacity="0.85" />
    </linearGradient>
    <linearGradient id="cloudFar" x1="0" y1="0" x2="0" y2="1">
      <stop offset="0%" stop-color="#f6fbff" stop-opacity="0.82" />
      <stop offset="100%" stop-color="#d8e9fa" stop-opacity="0.7" />
    </linearGradient>
  </defs>

  <rect width="1920" height="1080" fill="url(#sky)" />
  <rect width="1920" height="1080" fill="url(#sunGlow)" />
  <g opacity="0.95">
    <g transform="translate(180 170)">
      <ellipse cx="140" cy="42" rx="98" ry="40" fill="url(#cloudSoft)" />
      <ellipse cx="72" cy="48" rx="62" ry="30" fill="url(#cloudSoft)" />
      <ellipse cx="208" cy="50" rx="66" ry="28" fill="url(#cloudSoft)" />
      <ellipse cx="140" cy="60" rx="130" ry="32" fill="url(#cloudSoft)" opacity="0.95" />
    </g>
    <g transform="translate(620 110)">
      <ellipse cx="110" cy="40" rx="84" ry="34" fill="url(#cloudSoft)" />
      <ellipse cx="50" cy="44" rx="50" ry="26" fill="url(#cloudSoft)" />
      <ellipse cx="170" cy="45" rx="56" ry="24" fill="url(#cloudSoft)" />
      <ellipse cx="112" cy="54" rx="108" ry="28" fill="url(#cloudSoft)" opacity="0.93" />
    </g>
    <g transform="translate(1110 185)">
      <ellipse cx="132" cy="40" rx="92" ry="34" fill="url(#cloudSoft)" />
      <ellipse cx="68" cy="44" rx="56" ry="26" fill="url(#cloudSoft)" />
      <ellipse cx="198" cy="46" rx="60" ry="24" fill="url(#cloudSoft)" />
      <ellipse cx="132" cy="56" rx="118" ry="28" fill="url(#cloudSoft)" opacity="0.92" />
    </g>
  </g>
  <g opacity="0.65">
    <g transform="translate(70 290)">
      <ellipse cx="90" cy="28" rx="70" ry="24" fill="url(#cloudFar)" />
      <ellipse cx="142" cy="30" rx="52" ry="20" fill="url(#cloudFar)" />
      <ellipse cx="44" cy="32" rx="42" ry="18" fill="url(#cloudFar)" />
    </g>
    <g transform="translate(860 270)">
      <ellipse cx="90" cy="28" rx="74" ry="24" fill="url(#cloudFar)" />
      <ellipse cx="148" cy="31" rx="54" ry="20" fill="url(#cloudFar)" />
      <ellipse cx="42" cy="33" rx="40" ry="18" fill="url(#cloudFar)" />
    </g>
    <g transform="translate(1500 300)">
      <ellipse cx="80" cy="24" rx="60" ry="20" fill="url(#cloudFar)" />
      <ellipse cx="124" cy="27" rx="46" ry="18" fill="url(#cloudFar)" />
      <ellipse cx="36" cy="28" rx="34" ry="15" fill="url(#cloudFar)" />
    </g>
  </g>

  <path
    d="M0,520 C260,440 490,520 720,500 C930,480 1120,390 1320,430 C1540,470 1730,420 1920,380 L1920,760 L0,760 Z"
    fill="#9ac88b"
    opacity="0.9"
  />

  <path
    d="M0,640 C240,570 540,650 820,620 C1100,590 1360,500 1620,540 C1730,560 1820,540 1920,510 L1920,860 L0,860 Z"
    fill="url(#groundBack)"
  />

  <path
    d="M0,790 C260,730 530,770 790,750 C1060,730 1340,660 1610,680 C1730,690 1825,685 1920,670 L1920,1080 L0,1080 Z"
    fill="url(#groundFront)"
  />

  <path d="M0,1080 L0,820 L520,1080 Z" fill="url(#fieldStripeA)" opacity="0.86" />
  <path d="M260,1080 L0,840 L860,1080 Z" fill="url(#fieldStripeB)" opacity="0.78" />
  <path d="M620,1080 L120,840 L1260,1080 Z" fill="url(#fieldStripeA)" opacity="0.72" />
  <path d="M980,1080 L360,840 L1680,1080 Z" fill="url(#fieldStripeB)" opacity="0.68" />
  <path d="M1360,1080 L640,830 L1920,1080 Z" fill="url(#fieldStripeA)" opacity="0.62" />
  <path d="M1680,1080 L920,860 L1920,1080 Z" fill="url(#fieldStripeB)" opacity="0.6" />

  <g opacity="0.65">
    <path d="M140,780 Q420,700 700,760" stroke="#8ac17a" stroke-width="5" fill="none" />
    <path d="M320,860 Q640,760 930,820" stroke="#8ac17a" stroke-width="4" fill="none" />
    <path d="M520,940 Q880,820 1240,900" stroke="#8ac17a" stroke-width="4" fill="none" />
    <path d="M760,1020 Q1120,900 1520,980" stroke="#8ac17a" stroke-width="4" fill="none" />
  </g>
</svg>
